<svg xmlns="http://www.w3.org/2000/svg" viewBox="0 0 480 320" role="img" aria-label="Exponential analysis">
  <defs>
    <filter id="shadow" x="-20%" y="-20%" width="140%" height="140%">
      <feDropShadow dx="0" dy="10" stdDeviation="10" flood-color="#000000" flood-opacity="0.18"/>
    </filter>
  </defs>
  <rect width="480" height="320" fill="#f3f5f7"/>
  <rect x="84" y="24" width="312" height="256" rx="4" fill="#ffffff" filter="url(#shadow)"/>
  <rect x="108" y="54" width="264" height="186" fill="#fbfcfd" stroke="#d9dee3" stroke-width="1.5"/>
  <line x1="124" y1="224" x2="360" y2="224" stroke="#7f8c8d" stroke-width="1.8"/>
  <line x1="124" y1="224" x2="124" y2="70" stroke="#7f8c8d" stroke-width="1.8"/>
  <path d="M124 114c22 0 38 5 52 14 14 9 25 22 35 37 11 18 22 38 39 55 16 16 37 24 72 24" fill="none" stroke="#d35400" stroke-width="3.5" stroke-linecap="round"/>
  <path d="M124 220c18-2 34-7 48-15 17-10 30-25 40-42 11-18 20-37 33-55 14-20 30-32 59-38" fill="none" stroke="#c0392b" stroke-width="3.5" stroke-linecap="round" opacity="0.85"/>
  <circle cx="124" cy="114" r="4" fill="#d35400"/>
  <circle cx="176" cy="128" r="4" fill="#d35400"/>
  <circle cx="250" cy="196" r="4" fill="#d35400"/>
  <circle cx="360" cy="224" r="4" fill="#d35400"/>
  <text x="240" y="43" text-anchor="middle" font-family="Georgia, serif" font-size="14" fill="#2c3e50">Exponential survival fit</text>
  <text x="55" y="160" transform="rotate(-90 55 160)" text-anchor="middle" font-family="Arial, sans-serif" font-size="10" fill="#2c3e50">Survival</text>
  <text x="236" y="245" text-anchor="middle" font-family="Arial, sans-serif" font-size="10" fill="#2c3e50">Time</text>
</svg>