<svg xmlns="http://www.w3.org/2000/svg" viewBox="0 0 480 320" role="img" aria-label="Random survival forest">
  <defs>
    <filter id="shadow" x="-20%" y="-20%" width="140%" height="140%">
      <feDropShadow dx="0" dy="10" stdDeviation="10" flood-color="#000000" flood-opacity="0.18"/>
    </filter>
  </defs>
  <rect width="480" height="320" fill="#f3f5f7"/>
  <rect x="84" y="24" width="312" height="256" rx="4" fill="#ffffff" filter="url(#shadow)"/>
  <rect x="108" y="54" width="264" height="186" fill="#fbfcfd" stroke="#d9dee3" stroke-width="1.5"/>
  <text x="240" y="43" text-anchor="middle" font-family="Georgia, serif" font-size="14" fill="#2c3e50">Random survival forest</text>
  <g fill="none" stroke="#2c3e50" stroke-width="2" stroke-linecap="round" stroke-linejoin="round">
    <path d="M168 194v-44"/>
    <path d="M168 150c-14 0-26 8-36 20"/>
    <path d="M168 150c14 0 26 8 36 20"/>
    <path d="M132 170h-18"/>
    <path d="M204 170h18"/>
    <path d="M132 170l-12 16"/>
    <path d="M204 170l12 16"/>
    <path d="M312 194v-44"/>
    <path d="M312 150c-14 0-26 8-36 20"/>
    <path d="M312 150c14 0 26 8 36 20"/>
    <path d="M276 170h-18"/>
    <path d="M348 170h18"/>
    <path d="M276 170l-12 16"/>
    <path d="M348 170l12 16"/>
  </g>
  <g fill="#f39c12">
    <circle cx="168" cy="132" r="10"/>
    <circle cx="132" cy="170" r="7"/>
    <circle cx="204" cy="170" r="7"/>
    <circle cx="312" cy="132" r="10"/>
    <circle cx="276" cy="170" r="7"/>
    <circle cx="348" cy="170" r="7"/>
  </g>
  <path d="M126 220c32-12 62-16 92-14 30 2 58 10 84 22 22 10 40 14 66 10" fill="none" stroke="#2980b9" stroke-width="3.5" stroke-linecap="round"/>
  <text x="240" y="235" text-anchor="middle" font-family="Arial, sans-serif" font-size="10" fill="#2c3e50">Ensemble survival estimate</text>
  <text x="55" y="160" transform="rotate(-90 55 160)" text-anchor="middle" font-family="Arial, sans-serif" font-size="10" fill="#2c3e50">Survival</text>
  <text x="236" y="245" text-anchor="middle" font-family="Arial, sans-serif" font-size="10" fill="#2c3e50">Time</text>
</svg>