<svg xmlns="http://www.w3.org/2000/svg" viewBox="0 0 480 320" role="img" aria-label="Weibull analysis">
  <defs>
    <filter id="shadow" x="-20%" y="-20%" width="140%" height="140%">
      <feDropShadow dx="0" dy="10" stdDeviation="10" flood-color="#000000" flood-opacity="0.18"/>
    </filter>
  </defs>
  <rect width="480" height="320" fill="#f3f5f7"/>
  <rect x="84" y="24" width="312" height="256" rx="4" fill="#ffffff" filter="url(#shadow)"/>
  <rect x="108" y="54" width="264" height="186" fill="#f9fbfc" stroke="#d9dee3" stroke-width="1.5"/>
  <line x1="124" y1="224" x2="360" y2="224" stroke="#7f8c8d" stroke-width="1.8"/>
  <line x1="124" y1="224" x2="124" y2="70" stroke="#7f8c8d" stroke-width="1.8"/>
  <path d="M124 220c18-40 34-68 54-88 20-20 40-31 60-36 24-7 44-3 60 8 18 12 32 32 48 66" fill="none" stroke="#f39c12" stroke-width="3.5" stroke-linecap="round"/>
  <path d="M124 220c10-28 22-49 35-65 13-16 28-27 45-34 17-7 35-10 54-8 20 2 38 8 57 19" fill="none" stroke="#c0392b" stroke-width="3.5" stroke-linecap="round" opacity="0.85"/>
  <circle cx="126" cy="220" r="4" fill="#f39c12"/>
  <circle cx="184" cy="142" r="4" fill="#f39c12"/>
  <circle cx="250" cy="104" r="4" fill="#f39c12"/>
  <circle cx="314" cy="96" r="4" fill="#f39c12"/>
  <text x="240" y="43" text-anchor="middle" font-family="Georgia, serif" font-size="14" fill="#2c3e50">Weibull survival fit</text>
  <text x="55" y="160" transform="rotate(-90 55 160)" text-anchor="middle" font-family="Arial, sans-serif" font-size="10" fill="#2c3e50">Survival</text>
  <text x="236" y="245" text-anchor="middle" font-family="Arial, sans-serif" font-size="10" fill="#2c3e50">Time</text>
</svg>